<svg width="702" height="384" viewBox="0 0 702 384" fill="none" xmlns="http://www.w3.org/2000/svg">
<path d="M532.114 332.629C533.862 332.619 535.609 332.608 537.41 332.597C542.192 332.577 546.972 332.589 551.754 332.618C556.762 332.642 561.77 332.629 566.778 332.622C575.185 332.615 583.593 332.638 592 332.679C601.718 332.725 611.435 332.725 621.153 332.7C630.507 332.677 639.861 332.687 649.215 332.712C653.193 332.722 657.172 332.72 661.15 332.709C666.705 332.696 672.258 332.731 677.813 332.771C679.464 332.761 681.115 332.752 682.816 332.742C685.084 332.77 685.084 332.77 687.399 332.798C689.368 332.804 689.368 332.804 691.377 332.81C696.016 333.783 697.768 335.695 700.69 339.352C701.887 345.586 701.565 351.89 701.507 358.226C701.541 359.952 701.576 361.677 701.611 363.455C701.609 365.113 701.606 366.771 701.603 368.48C701.605 370.751 701.605 370.751 701.606 373.068C700.69 377.1 700.69 377.1 698.064 380.21C691.034 384.302 684.459 383.705 676.463 383.636C674.746 383.643 673.029 383.651 671.26 383.659C666.562 383.674 661.865 383.663 657.168 383.64C652.246 383.619 647.323 383.629 642.401 383.634C634.136 383.638 625.872 383.618 617.607 383.585C608.059 383.546 598.512 383.543 588.965 383.56C579.77 383.576 570.576 383.567 561.381 383.547C557.473 383.538 553.565 383.538 549.656 383.545C544.196 383.549 538.736 383.526 533.276 383.494C530.848 383.504 530.848 383.504 528.371 383.514C526.136 383.492 526.136 383.492 523.856 383.47C522.566 383.467 521.276 383.463 519.947 383.459C515.432 382.774 512.7 381.265 509.049 378.552C506.772 371.721 507.149 364.838 507.053 357.682C506.998 356.17 506.944 354.657 506.888 353.099C506.871 351.636 506.855 350.172 506.837 348.665C506.808 347.331 506.78 345.998 506.75 344.625C509.674 331.437 521.163 332.516 532.114 332.629Z" fill="#1A2641"/>
<path d="M14.2129 332.795C15.7251 332.776 17.2374 332.758 18.7955 332.739C20.4466 332.748 22.0977 332.758 23.7988 332.767C26.4164 332.749 26.4164 332.749 29.087 332.73C33.8689 332.702 38.6493 332.701 43.4312 332.714C47.4252 332.721 51.4191 332.711 55.4131 332.7C64.8367 332.676 74.2601 332.681 83.6838 332.705C93.4006 332.73 103.116 332.707 112.833 332.66C121.181 332.621 129.528 332.61 137.875 332.623C142.859 332.63 147.842 332.627 152.825 332.597C158.383 332.565 163.94 332.593 169.497 332.626C171.97 332.6 171.97 332.6 174.492 332.574C185.632 332.709 185.632 332.709 191.409 336.991C194.359 341.305 194.902 343.433 194.825 348.61C194.815 350.067 194.805 351.524 194.794 353.025C194.723 355.284 194.723 355.284 194.65 357.588C194.637 359.855 194.637 359.855 194.624 362.167C194.415 375.16 194.415 375.16 191.111 380C186.626 382.793 183.166 383.272 177.93 383.292C176.442 383.305 174.954 383.317 173.421 383.33C170.985 383.328 170.985 383.328 168.5 383.326C166.783 383.336 165.066 383.345 163.298 383.355C158.594 383.378 153.891 383.388 149.187 383.39C146.248 383.392 143.308 383.398 140.368 383.406C130.108 383.432 119.849 383.444 109.589 383.442C100.031 383.44 90.4729 383.471 80.9146 383.517C72.7029 383.555 64.4912 383.57 56.2794 383.568C51.3771 383.568 46.4753 383.576 41.5731 383.607C36.1056 383.635 30.6394 383.627 25.1719 383.609C23.5509 383.626 21.9299 383.642 20.2598 383.659C9.32482 383.57 9.32482 383.57 3.54645 380.208C0.10801 376.132 0.00482487 373.772 0.00850679 368.476C0.00569955 366.818 0.0028923 365.16 0 363.452C0.0346226 361.726 0.0692453 360.001 0.104917 358.223C0.0890094 356.497 0.0731017 354.772 0.0567119 352.994C0.164193 340.297 0.164193 340.297 3.40587 336.24C7.38104 333.012 9.1554 332.81 14.2129 332.795Z" fill="#1A2641"/>
<path d="M526.117 46.5361C527.195 47.3446 528.273 48.1531 529.383 48.9861C530.222 49.555 531.06 50.1239 531.924 50.7101C534.896 55.02 535.203 59.8439 535.191 64.9562C533.902 68.7734 532.668 71.6639 530.744 75.1189C530.228 76.0973 529.711 77.0756 529.179 78.0835C522.742 90.0864 515.75 101.796 508.831 113.524C503.505 122.563 498.291 131.662 493.102 140.78C485.105 154.826 477.07 168.85 468.951 182.826C468.144 184.221 467.338 185.617 466.507 187.054C450.31 214.857 450.31 214.857 443.601 216.842C438.079 217.464 434.574 217.837 429.389 215.583C423.317 210.583 420.851 207.867 420.031 199.698C420.616 192.744 422.955 188.548 426.485 182.645C427.455 180.963 427.455 180.963 428.444 179.247C430.613 175.497 432.813 171.767 435.015 168.036C436.574 165.362 438.132 162.687 439.688 160.011C442.191 155.709 444.698 151.41 447.214 147.115C453.375 136.597 459.452 126.034 465.486 115.444C473.522 101.34 481.584 87.2533 489.73 73.2134C490.549 71.7939 491.368 70.3744 492.211 68.9118C509.773 38.7359 509.773 38.7359 526.117 46.5361Z" fill="#1A2641"/>
<path d="M193.715 46.5099C200.818 51.5463 204.347 59.8656 208.438 67.3175C209.388 69.0125 210.341 70.7063 211.296 72.3989C213.276 75.9126 215.246 79.4315 217.21 82.9544C221.729 91.041 226.388 99.0465 231.032 107.061C232.841 110.197 234.651 113.333 236.459 116.47C241.074 124.47 245.693 132.468 250.313 140.466C252.142 143.634 253.967 146.805 255.79 149.977C260.118 157.509 264.48 165.016 268.938 172.473C269.754 173.855 270.571 175.238 271.412 176.662C272.935 179.238 274.474 181.804 276.034 184.359C280.094 191.277 282.185 196.071 281.12 204.334C278.896 208.993 276.342 212.614 272.409 215.948C266.433 217.716 261.062 218.088 255.259 215.767C249.439 210.778 245.484 204.761 241.711 198.146C240.859 196.661 240.007 195.176 239.13 193.646C238.224 192.053 237.319 190.459 236.385 188.817C235.42 187.13 234.454 185.442 233.487 183.756C231.482 180.254 229.479 176.752 227.478 173.248C222.882 165.204 218.244 157.186 213.61 149.164C211.806 146.038 210.003 142.911 208.199 139.784C204.46 133.302 200.716 126.822 196.97 120.343C192.416 112.467 187.878 104.582 183.343 96.695C181.155 92.9085 178.944 89.1365 176.724 85.3689C175.529 83.3142 174.335 81.2594 173.14 79.2043C172.613 78.3263 172.085 77.4484 171.542 76.5438C167.608 69.7116 165.43 63.0437 167.424 55.2492C173.228 45.0232 182.7 41.4175 193.715 46.5099Z" fill="#1A2641"/>
<path d="M644.076 166.586C649.378 168.996 652.852 171.639 655.69 176.749C657.283 183.488 657.883 188.149 654.239 194.171C646.556 201.407 637.617 206.241 628.469 211.411C625.928 212.862 623.387 214.312 620.847 215.763C618.221 217.262 615.594 218.757 612.966 220.251C604.925 224.829 596.918 229.466 588.906 234.096C585.78 235.9 582.653 237.703 579.526 239.506C573.044 243.246 566.564 246.989 560.085 250.735C552.209 255.289 544.324 259.828 536.437 264.363C532.651 266.551 528.879 268.761 525.111 270.981C523.057 272.176 521.002 273.371 518.947 274.566C517.63 275.357 517.63 275.357 516.286 276.164C510.523 279.483 505.527 280.885 498.893 281.28C493.63 279.256 489.358 277.03 485.827 272.569C483.597 265.88 483.252 260.481 486.252 253.99C491.289 246.888 499.608 243.359 507.06 239.268C508.753 238.319 510.444 237.367 512.135 236.413C515.646 234.434 519.163 232.464 522.684 230.502C530.834 225.949 538.906 221.26 546.985 216.583C548.544 215.684 550.103 214.785 551.709 213.859C560.831 208.599 569.934 203.306 579.021 197.986C584.732 194.645 590.452 191.321 596.173 187.998C599.16 186.254 602.142 184.501 605.119 182.74C609.655 180.058 614.206 177.403 618.76 174.753C620.133 173.931 621.506 173.109 622.921 172.262C630.366 167.966 635.436 165.357 644.076 166.586Z" fill="#1A2641"/>
<path d="M72.0539 168.353C73.4859 169.173 74.9178 169.993 76.3931 170.838C78.0018 171.746 79.6104 172.653 81.2679 173.589C82.9742 174.58 84.6801 175.573 86.3857 176.566C88.1616 177.579 89.9385 178.59 91.7163 179.6C96.7922 182.492 101.845 185.422 106.893 188.362C108.688 189.404 108.688 189.404 110.519 190.467C115.393 193.305 120.25 196.169 125.097 199.052C133.232 203.88 141.434 208.593 149.631 213.315C151.217 214.23 152.802 215.145 154.436 216.087C162.029 220.466 169.628 224.836 177.24 229.183C179.85 230.674 182.459 232.168 185.068 233.662C188.351 235.543 191.637 237.418 194.926 239.288C196.412 240.14 197.899 240.992 199.43 241.87C200.733 242.613 202.036 243.356 203.379 244.122C215.179 251.518 215.179 251.518 217.232 258.05C217.892 265.32 217.393 269.664 212.876 275.472C208.073 280.275 203.584 280.873 196.906 281.279C193.182 279.985 190.239 278.703 186.834 276.833C185.851 276.317 184.868 275.802 183.856 275.271C170.166 267.974 156.856 259.966 143.5 252.082C135.741 247.521 127.941 243.032 120.141 238.541C118.591 237.647 117.042 236.753 115.446 235.833C108.091 231.591 100.731 227.356 93.3628 223.137C90.7894 221.663 88.217 220.187 85.645 218.711C82.4282 216.865 79.2095 215.023 75.9883 213.185C47.1601 196.628 47.1601 196.628 44.969 189.74C44.197 183.616 44.078 180.453 46.8235 174.751C54.1766 166.624 61.4756 164.063 72.0539 168.353Z" fill="#1A2641"/>
<path d="M358.067 1.07793C363.031 4.12903 366.344 7.03564 368.23 12.6925C368.369 14.9788 368.426 17.2705 368.434 19.561C368.446 21.6798 368.446 21.6798 368.459 23.8414C368.461 25.3891 368.462 26.9369 368.464 28.5315C368.471 30.1631 368.478 31.7947 368.486 33.4757C368.507 38.8847 368.517 44.2937 368.525 49.7027C368.533 53.455 368.542 57.2072 368.55 60.9594C368.563 67.8249 368.572 74.6904 368.577 81.5559C368.583 91.6564 368.609 101.757 368.651 111.857C368.686 120.61 368.697 129.362 368.7 138.115C368.704 141.837 368.716 145.559 368.735 149.281C368.76 154.484 368.757 159.686 368.747 164.89C368.761 166.431 368.774 167.973 368.788 169.562C368.736 178.694 368.008 184.23 361.334 190.904C356.748 193.452 353.14 193.99 347.904 194.171C342.641 192.146 338.369 189.92 334.838 185.46C333.439 181.262 333.198 178.599 333.182 174.236C333.174 172.823 333.166 171.411 333.157 169.955C333.156 168.408 333.154 166.86 333.152 165.265C333.145 163.634 333.138 162.002 333.13 160.321C333.109 154.912 333.099 149.503 333.091 144.094C333.083 140.342 333.075 136.59 333.066 132.837C333.053 125.972 333.044 119.106 333.039 112.241C333.033 102.14 333.007 92.0402 332.965 81.9398C332.93 73.1872 332.919 64.4347 332.916 55.6821C332.912 51.9601 332.9 48.2381 332.881 44.5161C332.857 39.3129 332.859 34.1104 332.869 28.9072C332.849 26.5944 332.849 26.5944 332.828 24.235C332.902 11.2046 332.902 11.2046 337.742 5.43341C344.425 -0.414691 349.462 -0.963969 358.067 1.07793Z" fill="#1A2641"/>
</svg>
